# MagicaVoxel @ Ephtracy

# group
o 

# material
mtllib 3d_Tea.mtl
usemtl palette

# normals
vn -1 0 0
vn 1 0 0
vn 0 0 1
vn 0 0 -1
vn 0 -1 0
vn 0 1 0

# texcoords
vt 0.0214844 0.5
vt 0.111328 0.5
vt 0.392578 0.5
vt 0.958984 0.5

# verts
v 0 0.4 -0.3
v 0 0.4 -0.5
v 0 0.8 -0.3
v 0 0.8 -0.5
v 0.1 0.8 -0.3
v 0.1 0.8 -0.5
v 0.1 1 -0.3
v 0.1 1 -0.5
v 0.2 1 -0.3
v 0.2 1 -0.5
v 0.2 1.1 -0.3
v 0.2 1.1 -0.5
v 0.3 1.1 -0.3
v 0.3 1.1 -0.5
v 0.3 1.2 -0.3
v 0.3 1.2 -0.5
v 0.5 0.9 -0.3
v 0.5 0.9 -0.5
v 0.5 1.1 -0.3
v 0.5 1.1 -0.5
v 0.6 0.8 -0.3
v 0.6 0.8 -0.5
v 0.6 0.9 -0.3
v 0.6 0.9 -0.5
v 0.2 0.9 -0.3
v 0.2 0.9 -0.5
v 0.2 1 -0.3
v 0.2 1 -0.5
v 0.3 0.8 -0.3
v 0.3 0.8 -0.5
v 0.3 0.9 -0.3
v 0.3 0.9 -0.5
v 0.3 1 -0.3
v 0.3 1 -0.5
v 0.3 1.1 -0.3
v 0.3 1.1 -0.5
v 0.4 0.4 -0.3
v 0.4 0.4 -0.5
v 0.4 0.8 -0.3
v 0.4 0.8 -0.5
v 0.5 1.1 -0.3
v 0.5 1.1 -0.5
v 0.5 1.2 -0.3
v 0.5 1.2 -0.5
v 0.7 0.8 -0.3
v 0.7 0.8 -0.5
v 0.7 0.9 -0.3
v 0.7 0.9 -0.5
v 0.7 1 -0.3
v 0.7 1 -0.5
v 0.7 1.1 -0.3
v 0.7 1.1 -0.5
v 0.8 0.9 -0.3
v 0.8 0.9 -0.5
v 0.8 1 -0.3
v 0.8 1 -0.5
v 0 0.4 -0.3
v 0 0.8 -0.3
v 0.1 0.5 -0.3
v 0.1 0.7 -0.3
v 0.1 0.8 -0.3
v 0.1 1 -0.3
v 0.2 0.9 -0.3
v 0.2 1 -0.3
v 0.2 1.1 -0.3
v 0.3 0.5 -0.3
v 0.3 0.7 -0.3
v 0.3 0.8 -0.3
v 0.3 0.9 -0.3
v 0.3 1 -0.3
v 0.3 1.1 -0.3
v 0.3 1.2 -0.3
v 0.4 0.4 -0.3
v 0.4 0.8 -0.3
v 0.5 0.9 -0.3
v 0.5 1.1 -0.3
v 0.5 1.2 -0.3
v 0.6 0.8 -0.3
v 0.6 0.9 -0.3
v 0.7 0.8 -0.3
v 0.7 0.9 -0.3
v 0.7 1 -0.3
v 0.7 1.1 -0.3
v 0.8 0.9 -0.3
v 0.8 1 -0.3
v 0 0.4 -0.5
v 0 0.8 -0.5
v 0.1 0.5 -0.5
v 0.1 0.7 -0.5
v 0.1 0.8 -0.5
v 0.1 1 -0.5
v 0.2 0.9 -0.5
v 0.2 1 -0.5
v 0.2 1.1 -0.5
v 0.3 0.5 -0.5
v 0.3 0.7 -0.5
v 0.3 0.8 -0.5
v 0.3 0.9 -0.5
v 0.3 1 -0.5
v 0.3 1.1 -0.5
v 0.3 1.2 -0.5
v 0.4 0.4 -0.5
v 0.4 0.8 -0.5
v 0.5 0.9 -0.5
v 0.5 1.1 -0.5
v 0.5 1.2 -0.5
v 0.6 0.8 -0.5
v 0.6 0.9 -0.5
v 0.7 0.8 -0.5
v 0.7 0.9 -0.5
v 0.7 1 -0.5
v 0.7 1.1 -0.5
v 0.8 0.9 -0.5
v 0.8 1 -0.5
v 0 0.4 -0.3
v 0.4 0.4 -0.3
v 0 0.4 -0.5
v 0.4 0.4 -0.5
v 0.6 0.8 -0.3
v 0.7 0.8 -0.3
v 0.6 0.8 -0.5
v 0.7 0.8 -0.5
v 0.5 0.9 -0.3
v 0.6 0.9 -0.3
v 0.7 0.9 -0.3
v 0.8 0.9 -0.3
v 0.5 0.9 -0.5
v 0.6 0.9 -0.5
v 0.7 0.9 -0.5
v 0.8 0.9 -0.5
v 0.2 1 -0.3
v 0.3 1 -0.3
v 0.2 1 -0.5
v 0.3 1 -0.5
v 0.3 1.1 -0.3
v 0.5 1.1 -0.3
v 0.3 1.1 -0.5
v 0.5 1.1 -0.5
v 0 0.8 -0.3
v 0.1 0.8 -0.3
v 0.3 0.8 -0.3
v 0.4 0.8 -0.3
v 0 0.8 -0.5
v 0.1 0.8 -0.5
v 0.3 0.8 -0.5
v 0.4 0.8 -0.5
v 0.2 0.9 -0.3
v 0.3 0.9 -0.3
v 0.2 0.9 -0.5
v 0.3 0.9 -0.5
v 0.1 1 -0.3
v 0.2 1 -0.3
v 0.7 1 -0.3
v 0.8 1 -0.3
v 0.1 1 -0.5
v 0.2 1 -0.5
v 0.7 1 -0.5
v 0.8 1 -0.5
v 0.2 1.1 -0.3
v 0.3 1.1 -0.3
v 0.5 1.1 -0.3
v 0.7 1.1 -0.3
v 0.2 1.1 -0.5
v 0.3 1.1 -0.5
v 0.5 1.1 -0.5
v 0.7 1.1 -0.5
v 0.3 1.2 -0.3
v 0.5 1.2 -0.3
v 0.3 1.2 -0.5
v 0.5 1.2 -0.5

# faces
f 3/4/1 2/4/1 1/4/1
f 4/4/1 2/4/1 3/4/1
f 7/4/1 6/4/1 5/4/1
f 8/4/1 6/4/1 7/4/1
f 11/4/1 10/4/1 9/4/1
f 12/4/1 10/4/1 11/4/1
f 15/4/1 14/4/1 13/4/1
f 16/4/1 14/4/1 15/4/1
f 19/1/1 18/1/1 17/1/1
f 20/1/1 18/1/1 19/1/1
f 23/1/1 22/1/1 21/1/1
f 24/1/1 22/1/1 23/1/1
f 25/4/2 26/4/2 27/4/2
f 27/4/2 26/4/2 28/4/2
f 29/4/2 30/4/2 31/4/2
f 31/4/2 30/4/2 32/4/2
f 33/4/2 34/4/2 35/4/2
f 35/4/2 34/4/2 36/4/2
f 37/4/2 38/4/2 39/4/2
f 39/4/2 38/4/2 40/4/2
f 41/4/2 42/4/2 43/4/2
f 43/4/2 42/4/2 44/4/2
f 45/1/2 46/1/2 47/1/2
f 47/1/2 46/1/2 48/1/2
f 49/1/2 50/1/2 51/1/2
f 51/1/2 50/1/2 52/1/2
f 53/1/2 54/1/2 55/1/2
f 55/1/2 54/1/2 56/1/2
f 59/4/3 58/4/3 57/4/3
f 60/4/3 58/4/3 59/4/3
f 61/4/3 58/4/3 60/4/3
f 63/4/3 62/4/3 61/4/3
f 64/4/3 62/4/3 63/4/3
f 66/4/3 59/4/3 57/4/3
f 66/3/3 60/3/3 59/3/3
f 67/2/3 61/2/3 60/2/3
f 67/3/3 60/3/3 66/3/3
f 68/4/3 63/4/3 61/4/3
f 68/2/3 61/2/3 67/2/3
f 69/4/3 63/4/3 68/4/3
f 70/4/3 65/4/3 64/4/3
f 71/4/3 65/4/3 70/4/3
f 73/4/3 67/4/3 66/4/3
f 73/4/3 66/4/3 57/4/3
f 73/4/3 68/4/3 67/4/3
f 74/4/3 68/4/3 73/4/3
f 76/4/3 72/4/3 71/4/3
f 77/4/3 72/4/3 76/4/3
f 79/1/3 76/1/3 75/1/3
f 80/1/3 79/1/3 78/1/3
f 81/1/3 76/1/3 79/1/3
f 81/1/3 79/1/3 80/1/3
f 82/1/3 76/1/3 81/1/3
f 83/1/3 76/1/3 82/1/3
f 84/1/3 82/1/3 81/1/3
f 85/1/3 82/1/3 84/1/3
f 86/4/4 87/4/4 88/4/4
f 88/4/4 87/4/4 89/4/4
f 89/4/4 87/4/4 90/4/4
f 90/4/4 91/4/4 92/4/4
f 92/4/4 91/4/4 93/4/4
f 86/4/4 88/4/4 95/4/4
f 88/3/4 89/3/4 95/3/4
f 89/2/4 90/2/4 96/2/4
f 95/3/4 89/3/4 96/3/4
f 90/4/4 92/4/4 97/4/4
f 96/2/4 90/2/4 97/2/4
f 97/4/4 92/4/4 98/4/4
f 93/4/4 94/4/4 99/4/4
f 99/4/4 94/4/4 100/4/4
f 95/4/4 96/4/4 102/4/4
f 86/4/4 95/4/4 102/4/4
f 96/4/4 97/4/4 102/4/4
f 102/4/4 97/4/4 103/4/4
f 100/4/4 101/4/4 105/4/4
f 105/4/4 101/4/4 106/4/4
f 104/1/4 105/1/4 108/1/4
f 107/1/4 108/1/4 109/1/4
f 108/1/4 105/1/4 110/1/4
f 109/1/4 108/1/4 110/1/4
f 110/1/4 105/1/4 111/1/4
f 111/1/4 105/1/4 112/1/4
f 110/1/4 111/1/4 113/1/4
f 113/1/4 111/1/4 114/1/4
f 117/4/5 116/4/5 115/4/5
f 118/4/5 116/4/5 117/4/5
f 121/1/5 120/1/5 119/1/5
f 122/1/5 120/1/5 121/1/5
f 127/1/5 124/1/5 123/1/5
f 128/1/5 124/1/5 127/1/5
f 129/1/5 126/1/5 125/1/5
f 130/1/5 126/1/5 129/1/5
f 133/4/5 132/4/5 131/4/5
f 134/4/5 132/4/5 133/4/5
f 137/4/5 136/4/5 135/4/5
f 138/4/5 136/4/5 137/4/5
f 139/4/6 140/4/6 143/4/6
f 143/4/6 140/4/6 144/4/6
f 141/4/6 142/4/6 145/4/6
f 145/4/6 142/4/6 146/4/6
f 147/4/6 148/4/6 149/4/6
f 149/4/6 148/4/6 150/4/6
f 151/4/6 152/4/6 155/4/6
f 155/4/6 152/4/6 156/4/6
f 153/1/6 154/1/6 157/1/6
f 157/1/6 154/1/6 158/1/6
f 159/4/6 160/4/6 163/4/6
f 163/4/6 160/4/6 164/4/6
f 161/1/6 162/1/6 165/1/6
f 165/1/6 162/1/6 166/1/6
f 167/4/6 168/4/6 169/4/6
f 169/4/6 168/4/6 170/4/6
